<svg xmlns="http://www.w3.org/2000/svg" width="140" height="40" viewBox="0 0 104 30" preserveAspectRatio="none">
  <defs>
    <style>
      .base{fill:#f6c85a;}
      .hi{fill:#ffe9ab;}
      .sh{fill:#b87318;}
      .ol{fill:none;stroke:#b9772e;stroke-width:1.7;stroke-linejoin:round;}
      .il{fill:none;stroke:rgba(255,255,255,.28);stroke-width:.9;stroke-linejoin:round;}
    </style>
    <linearGradient id="goldGlaze2" x1="0" x2="1">
      <stop offset="0" stop-color="rgba(255,255,255,0)"/>
      <stop offset="0.52" stop-color="rgba(255,255,255,.20)"/>
      <stop offset="1" stop-color="rgba(255,255,255,0)"/>
    </linearGradient>
  </defs>

  <polygon class="base" points="4,0 100,0 104,4 104,26 100,30 4,30 0,26 0,4"/>
  <polygon class="hi" points="0,23 12,8 72,2 4,2 0,6" opacity="0.58"/>
  <polygon class="sh" points="104,10 90,26 18,30 100,30 104,26" opacity="0.98"/>

  <rect x="0" y="0" width="104" height="30" fill="url(#goldGlaze2)" opacity="0.70"/>

  <polygon class="ol" points="4,0 100,0 104,4 104,26 100,30 4,30 0,26 0,4"/>
  <polygon class="il" points="4,1.4 100,1.4 102.6,4.2 102.6,25.8 100,28.6 4,28.6 1.4,25.8 1.4,4.2"/>
</svg>
